<?xml version="1.0" encoding="UTF-8" standalone="no"?>
<!DOCTYPE svg PUBLIC "-//W3C//DTD SVG 1.1//EN" "http://www.w3.org/Graphics/SVG/1.1/DTD/svg11.dtd">
<svg width="100%" height="100%" viewBox="0 0 230 230" version="1.1" xmlns="http://www.w3.org/2000/svg" xmlns:xlink="http://www.w3.org/1999/xlink" xml:space="preserve" xmlns:serif="http://www.serif.com/" style="fill-rule:evenodd;clip-rule:evenodd;stroke-linecap:round;stroke-linejoin:round;">
    <g id="g990" transform="matrix(1,0,0,1,1.61544,41.8087)">
        <g id="g8" transform="matrix(1,0,0,1,-7.61702,-355.238)">
            <path id="path2" d="M233.666,385.474L186.118,397.93L122.763,397.204L69.282,401.44L8.338,385.474L121.002,355.959L233.666,385.474Z" style="fill:rgb(26,26,26);fill-rule:nonzero;stroke:rgb(26,26,26);stroke-width:1.44px;"/>
        </g>
        <g id="g22" transform="matrix(1,0,0,1,-7.61702,-355.238)">
            <path id="path14" d="M190.182,445.455C190.182,443.407 190.886,441.87 192.294,440.846C193.703,439.694 195.239,439.118 196.903,439.118C198.567,439.118 200.04,439.63 201.32,440.654C202.728,441.678 203.432,443.279 203.432,445.455L203.432,468.716C203.432,476.269 201.832,482.35 198.631,486.959C195.431,491.568 191.334,494.896 186.342,496.944C181.349,498.993 178.675,500.017 173.17,500.017C167.025,500.017 164.46,498.993 159.468,496.944C154.603,494.896 150.762,491.568 147.946,486.959C145.129,482.222 143.721,476.077 143.721,468.524L143.721,445.455C143.721,443.279 144.425,441.742 145.833,440.846C147.242,439.822 148.778,439.31 150.442,439.31C152.106,439.31 153.579,439.822 154.859,440.846C156.267,441.742 156.971,443.279 156.971,445.455L156.971,468.524C156.971,475.309 158.635,480.302 161.964,483.502C165.421,486.575 167.153,488.111 173.17,488.111C178.547,488.111 180.58,486.575 184.421,483.502C188.262,480.302 190.182,475.373 190.182,468.716L190.182,457.085L190.182,445.455Z" style="fill:rgb(26,26,26);fill-rule:nonzero;"/>
            <path id="path16" d="M73.803,501.619C66.506,501.619 59.848,499.891 53.831,496.434C47.943,492.85 43.206,488.049 39.621,482.032C36.165,475.887 34.436,468.974 34.436,461.292C34.436,453.227 36.165,446.186 39.621,440.169C43.206,434.024 48.006,429.287 54.023,425.959C60.169,422.63 67.017,420.979 74.571,420.979C79.82,420.979 120.847,420.923 125.904,420.979C130.963,421.037 175.303,420.994 177.238,420.979C179.175,420.964 179.7,421.183 181.364,421.194C183.029,421.205 185.77,423.127 185.811,426.683C185.851,430.24 184.984,433.288 180.293,433.288C175.602,433.288 125.743,433.082 74.761,433.074C66.952,433.074 60.487,435.498 55.366,440.747C50.373,445.868 47.877,452.717 47.877,461.294C47.877,469.616 50.245,476.465 54.982,481.842C59.847,487.091 66.12,489.715 73.801,489.715C78.41,489.715 82.442,488.883 85.899,487.218C89.483,485.554 92.3,483.442 94.348,480.881C96.525,478.193 97.741,475.568 97.997,473.008C97.997,470.959 96.973,469.935 94.924,469.935L90.732,469.935C86.507,469.935 84.395,467.951 84.395,463.983C84.395,462.19 84.971,460.782 86.123,459.758C87.276,458.734 88.812,458.222 90.732,458.222L103.182,458.222C105.998,458.222 108.046,458.862 109.327,460.142C110.607,461.294 111.247,463.598 111.247,467.055C111.247,473.328 109.647,479.089 106.447,484.338C103.374,489.587 99.021,493.811 93.388,497.012C87.755,500.084 81.226,501.62 73.801,501.62L73.803,501.619Z" style="fill:rgb(26,26,26);fill-rule:nonzero;"/>
            <path id="path18" d="M222.557,385.058L222.557,405.441" style="fill:none;fill-rule:nonzero;stroke:rgb(26,26,26);stroke-width:2px;stroke-linecap:butt;stroke-linejoin:miter;"/>
            <g id="path20" transform="matrix(0.22342,0,0,0.22342,52.9776,136.562)">
                <path d="M780.17,1206.65L759.024,1227.8L737.878,1206.65L759.024,1185.51L780.17,1206.65Z" style="fill:rgb(26,26,26);fill-rule:nonzero;stroke:rgb(26,26,26);stroke-width:1px;"/>
            </g>
        </g>
        <circle id="circle24" cx="166.052" cy="107.036" r="4.724" style="fill:rgb(255,225,0);"/>
        <path id="path26" d="M61.983,88.895L61.983,107.132" style="fill:none;fill-rule:nonzero;stroke:black;stroke-width:10px;stroke-linejoin:miter;"/>
        <g id="g34" transform="matrix(1,0,0,1,-7.61702,-355.238)">
            <circle id="circle28" cx="173.669" cy="443.83" r="4.724" style="fill:rgb(0,122,255);"/>
            <circle id="circle30" cx="183.228" cy="452.712" r="4.724" style="fill:rgb(0,222,0);"/>
            <circle id="circle32" cx="164.111" cy="452.712" r="4.724" style="fill:rgb(222,0,0);"/>
        </g>
        <g id="g42" transform="matrix(1,0,0,1,-7.61702,-355.238)">
            <path id="path36" d="M133.504,458.532L133.504,464.111" style="fill:none;fill-rule:nonzero;stroke:black;stroke-width:10px;stroke-linejoin:miter;"/>
            <path id="path38" d="M120.386,458.532L120.386,464.111" style="fill:none;fill-rule:nonzero;stroke:black;stroke-width:10px;stroke-linejoin:miter;"/>
            <path id="path40" d="M60.48,453.241L78.717,453.241" style="fill:none;fill-rule:nonzero;stroke:black;stroke-width:10px;stroke-linejoin:miter;"/>
        </g>
        <path id="path44" d="M38.75,34.772C38.75,34.772 62.906,28.174 75.42,26.213C87.953,24.25 100.779,23.034 113.567,23.055C125.866,23.074 138.175,24.355 150.236,26.213C163.222,28.214 188.383,34.772 188.383,34.772L188.383,66.862C188.383,66.862 164.198,58.435 151.359,55.868C139.068,53.411 126.3,51.736 113.566,51.75C101.086,51.761 88.596,53.478 76.542,55.868C63.466,58.462 38.749,66.862 38.749,66.862L38.75,34.772Z" style="fill:rgb(51,51,51);fill-rule:nonzero;stroke:white;stroke-width:1.55px;"/>
    </g>
</svg>
