<?xml version="1.0" encoding="UTF-8" standalone="no"?>
<!-- Created with Inkscape (http://www.inkscape.org/) -->

<svg
   width="230"
   height="230"
   version="1.1"
   viewBox="0 0 60.854165 60.854168"
   id="svg48"
   sodipodi:docname="drawing.svg"
   inkscape:export-filename="C:\Users\Sratschi\Desktop\NewLogo_Updated5_512x512.png"
   inkscape:export-xdpi="213.70435"
   inkscape:export-ydpi="213.70435"
   inkscape:version="1.1.1 (3bf5ae0d25, 2021-09-20)"
   xmlns:inkscape="http://www.inkscape.org/namespaces/inkscape"
   xmlns:sodipodi="http://sodipodi.sourceforge.net/DTD/sodipodi-0.dtd"
   xmlns="http://www.w3.org/2000/svg"
   xmlns:svg="http://www.w3.org/2000/svg">
  <defs
     id="defs52" />
  <sodipodi:namedview
     id="namedview50"
     pagecolor="#ff19ff"
     bordercolor="#666666"
     borderopacity="1.0"
     inkscape:pageshadow="2"
     inkscape:pageopacity="0"
     inkscape:pagecheckerboard="false"
     inkscape:document-units="px"
     showgrid="true"
     showborder="true"
     units="px"
     fit-margin-top="0"
     fit-margin-left="0"
     fit-margin-right="0"
     fit-margin-bottom="0"
     inkscape:zoom="8"
     inkscape:cx="131.5625"
     inkscape:cy="84.9375"
     inkscape:window-width="1920"
     inkscape:window-height="1017"
     inkscape:window-x="1912"
     inkscape:window-y="-8"
     inkscape:window-maximized="1"
     inkscape:current-layer="g990"
     inkscape:snap-nodes="false">
    <inkscape:grid
       type="xygrid"
       id="grid968"
       originx="-0.42741936"
       originy="12.256952" />
  </sodipodi:namedview>
  <text
     transform="matrix(0.26458,0,0,0.26458,-2.4427555,-81.733029)"
     fill="#000000"
     font-family="sans-serif"
     font-size="40px"
     style="line-height:1.25;white-space:pre;shape-inside:url(#rect2498)"
     xml:space="preserve"
     id="text10" />
  <text
     transform="matrix(0.26458,0,0,0.26458,-2.4427555,-81.733029)"
     fill="#000000"
     font-family="sans-serif"
     font-size="40px"
     style="line-height:1.25;white-space:pre;shape-inside:url(#rect11530)"
     xml:space="preserve"
     id="text12" />
  <g
     id="g990"
     transform="translate(0.42741935,11.061889)">
    <path
       id="path18890"
       style="fill:#000000;fill-opacity:1;stroke-linecap:round;stroke-linejoin:round"
       d="M 115 42.529297 L 2.3359375 72.044922 L 40.365234 82.007812 L 40.365234 76.580078 C 40.365234 76.580078 64.52114 69.981925 77.035156 68.021484 C 89.568448 66.057944 102.39361 64.842229 115.18164 64.863281 C 127.4806 64.882179 139.79033 66.163317 151.85156 68.021484 C 164.83689 70.021988 189.99805 76.580078 189.99805 76.580078 L 189.99805 81.912109 L 227.66406 72.044922 L 115 42.529297 z "
       transform="matrix(0.26458333,0,0,0.26458333,-0.42741935,-11.061889)" />
    <path
       d="m 10.781781,9.5991179 c 0,0 6.220371,-1.6739964 9.442874,-2.1713883 3.227467,-0.4981785 6.530165,-0.8067009 9.823229,-0.8013608 3.16712,0.00482 6.336966,0.3299177 9.442873,0.8013608 3.343864,0.5075564 9.823226,2.1713883 9.823226,2.1713883 v 8.1418151 c 0,0 -6.227965,-2.13801 -9.534071,-2.789308 -3.165273,-0.623556 -6.453081,-1.048484 -9.732224,-1.044935 -3.21384,0.003 -6.430114,0.43836 -9.534074,1.044935 -3.367225,0.657991 -9.732225,2.789308 -9.732225,2.789308 z"
       fill="#333333"
       stroke="#ffffff"
       stroke-linecap="round"
       stroke-linejoin="round"
       stroke-width="0.40928"
       id="path44"
       style="opacity:0.995935;fill:#000000;fill-opacity:1;stroke:none;stroke-width:0.420981;stroke-linejoin:miter;stroke-miterlimit:4;stroke-dasharray:none;stroke-opacity:0" />
    <path
       d="m 48.303664,23.870019 c 0,-0.54196 0.1863,-0.94843 0.55889,-1.2194 0.37259,-0.30485 0.77906,-0.45727 1.2194,-0.45727 0.44034,0 0.82987,0.13548 1.1686,0.40647 0.37259,0.27097 0.55889,0.69436 0.55889,1.2702 v 3.0772 3.0772 c 0,1.9984 -0.4234,3.6074 -1.2702,4.8268 -0.8468,1.2194 -1.9307,2.1001 -3.2517,2.642 -1.321,0.54196 -2.0285,0.81293 -3.485,0.81293 -1.6259,0 -2.3044,-0.27097 -3.6254,-0.81293 -1.2871,-0.54195 -2.3033,-1.4226 -3.0485,-2.642 -0.74519,-1.2533 -1.1178,-2.8791 -1.1178,-4.8776 v -6.1036 c 0,-0.57584 0.1863,-0.9823 0.55889,-1.2194 0.37259,-0.27099 0.77906,-0.40646 1.2194,-0.40646 0.44034,0 0.82987,0.13547 1.1686,0.40646 0.37259,0.2371 0.55889,0.64356 0.55889,1.2194 v 6.1036 c 0,1.7952 0.44034,3.1162 1.321,3.963 0.91455,0.81294 1.3729,1.2194 2.9649,1.2194 1.4226,0 1.9607,-0.40646 2.9769,-1.2194 1.0162,-0.8468 1.5242,-2.1509 1.5242,-3.9122 v -3.0772 z"
       id="path14"
       style="fill:#000000;fill-opacity:1" />
    <path
       d="m 17.511664,38.730019 c -1.9307,0 -3.6921,-0.45727 -5.2841,-1.3718 -1.5581,-0.94842 -2.8114001,-2.2186 -3.7598001,-3.8106 -0.91455,-1.6259 -1.3718,-3.455 -1.3718,-5.4873 0,-2.134 0.45727,-3.9969 1.3718,-5.5889 0.94842,-1.6259 2.2186001,-2.8791 3.8106001,-3.7598 1.6259,-0.88067 3.438,-1.3175 5.4365,-1.3175 1.3888,0 12.244,-0.015 13.582,0 1.3384,0.0153 13.07,0.004 13.582,0 0.51248,-0.004 0.65144,0.0538 1.0918,0.0568 0.44033,0.003 1.1656,0.5114 1.1764,1.4524 0.01075,0.94097 -0.21869,1.7476 -1.4599,1.7476 -1.2412,0 -14.433,-0.0545 -27.922,-0.0568 -2.0662,0 -3.7767,0.64142 -5.1316,2.0302 -1.321,1.3549 -1.9815,3.167 -1.9815,5.4365 0,2.2017 0.62664,4.0139 1.8799,5.4365 1.2871,1.3888 2.9469,2.0831 4.9792,2.0831 1.2194,0 2.2864,-0.22016 3.2009,-0.66051 0.94842,-0.44034 1.6936,-0.99923 2.2356,-1.6767 0.57583,-0.71132 0.89761,-1.4057 0.96536,-2.0832 0,-0.54196 -0.27098,-0.81293 -0.81293,-0.81293 h -1.1092 c -1.1178,0 -1.6767,-0.52502 -1.6767,-1.575 0,-0.47421 0.15242,-0.84681 0.45727,-1.1178 0.30485,-0.27098 0.71132,-0.40647 1.2194,-0.40647 h 3.294 c 0.74519,0 1.2871,0.16935 1.6259,0.50808 0.33872,0.30485 0.50808,0.91455 0.50808,1.8291 0,1.6597 -0.4234,3.184 -1.2702,4.5727 -0.81293,1.3888 -1.9646,2.5065 -3.455,3.3533 -1.4904,0.81294 -3.2179,1.2194 -5.1824,1.2194 z"
       id="path16"
       style="fill:#000000;fill-opacity:1" />
    <path
       d="m 56.869664,7.890019 v 5.3929"
       stroke="#1a1a1a"
       stroke-width="0.52917"
       id="path18"
       style="fill:#000000;fill-opacity:1;stroke:#000000;stroke-opacity:1" />
    <path
       d="m 58.12002,13.471088 -1.250012,1.250013 -1.250013,-1.250013 1.250013,-1.250012 z"
       stroke="#1a1a1a"
       stroke-linecap="round"
       stroke-linejoin="round"
       id="path20"
       style="fill:#000000;fill-opacity:1;stroke-width:0.22342;stroke:#000000;stroke-opacity:1;stroke-linejoin:miter" />
    <circle
       cx="43.934666"
       cy="28.320017"
       r="1.25"
       fill="#ffe100"
       stroke-width="0"
       id="circle24" />
    <path
       d="m 16.399664,23.520019 3e-6,4.8252"
       fill="none"
       stroke="#000000"
       stroke-linecap="round"
       stroke-width="2.6458"
       id="path26"
       style="stroke-width:2.64583333;stroke-miterlimit:4;stroke-dasharray:none" />
    <g
       stroke-width="0"
       id="g34"
       transform="translate(-2.0153361,-93.989981)">
      <circle
         cx="45.950001"
         cy="117.43"
         r="1.25"
         fill="#007aff"
         style="mix-blend-mode:normal"
         id="circle28" />
      <circle
         cx="48.479"
         cy="119.78"
         r="1.25"
         fill="#00de00"
         id="circle30" />
      <circle
         cx="43.421001"
         cy="119.78"
         r="1.25"
         fill="#de0000"
         id="circle32" />
    </g>
    <g
       fill="none"
       stroke="#000000"
       stroke-linecap="round"
       stroke-width="2.6458"
       id="g42"
       transform="translate(-2.0153361,-93.989981)">
      <path
         d="m 35.323,121.32 v 1.476"
         id="path36" />
      <path
         d="m 31.852,121.32 v 1.476"
         id="path38" />
      <path
         d="m 16.002,119.92 h 4.8252"
         id="path40" />
    </g>
    <rect
       style="fill:none;stroke:none;stroke-width:0.529167;stroke-linecap:round;stroke-linejoin:round"
       id="rect2599"
       width="10.583333"
       height="2.1166677"
       x="43.859745"
       y="-11.240354"
       ry="0" />
    <path
       style="fill:none;stroke:none;stroke-width:0.133178;stroke-linecap:round;stroke-linejoin:round"
       d="m 170.40137,6.7505664 c -0.0915,-0.036503 -0.23672,-0.1319897 -0.32263,-0.2121937 -0.34673,-0.3237323 -0.3433,-0.2886737 -0.3433,-3.5052649 V 0.03329452 h 17.21541 c 19.01069,0 17.48969,-0.03725295 17.85159,0.43722708 l 0.1919,0.25159091 V 3.4293352 6.1365579 l -0.17936,0.2351545 c -0.37889,0.4967486 1.27463,0.4541442 -17.44351,0.4494424 -10.9994,-0.00276 -16.86115,-0.027145 -16.9701,-0.070588 z"
       id="path2697"
       transform="matrix(0.26458333,0,0,0.26458333,-0.42741935,-11.061889)" />
    <path
       style="fill:none;stroke:none;stroke-width:0.133178;stroke-linecap:round;stroke-linejoin:round"
       d="m 170.40137,6.7505664 c -0.0915,-0.036503 -0.23672,-0.1319897 -0.32263,-0.2121937 -0.34673,-0.3237323 -0.3433,-0.2886737 -0.3433,-3.5052649 V 0.03329452 h 17.21541 c 19.01069,0 17.48969,-0.03725295 17.85159,0.43722708 l 0.1919,0.25159091 V 3.4293352 6.1365579 l -0.17936,0.2351545 c -0.37889,0.4967486 1.27463,0.4541442 -17.44351,0.4494424 -10.9994,-0.00276 -16.86115,-0.027145 -16.9701,-0.070588 z"
       id="path2736"
       transform="matrix(0.26458333,0,0,0.26458333,-0.42741935,-11.061889)" />
    <path
       style="fill:none;stroke:none;stroke-width:0.133178;stroke-linecap:round;stroke-linejoin:round"
       d="M 143.88276,49.320765 117.79702,42.483803 117.79651,8.2736873 117.796,-25.936428 h 67.05516 67.05515 V 15.11571 56.167849 l -40.9689,-0.0051 -40.9689,-0.0051 z M 195.7884,6.8420251 c -4.62377,-0.00944 -12.18995,-0.00944 -16.81373,0 -4.62377,0.00944 -0.84068,0.017162 8.40687,0.017162 9.24755,0 13.03064,-0.00772 8.40686,-0.017162 z m 8.77311,-0.1498273 c 0,-0.036624 -0.0132,-0.066589 -0.0294,-0.066589 -0.0161,0 -0.0479,0.029965 -0.0705,0.066589 -0.0226,0.036624 -0.009,0.066589 0.0294,0.066589 0.0388,0 0.0705,-0.029965 0.0705,-0.066589 z M 170.06864,6.5259876 c -0.0859,-0.091415 -0.17083,-0.1515294 -0.18877,-0.1335863 -0.0442,0.044206 0.19198,0.2997965 0.27704,0.2997965 0.0373,0 -0.002,-0.074795 -0.0883,-0.1662102 z m 34.69264,0.033032 c 0,-0.036624 -0.0132,-0.066589 -0.0294,-0.066589 -0.0162,0 -0.0479,0.029965 -0.0705,0.066589 -0.0226,0.036624 -0.009,0.066589 0.0294,0.066589 0.0388,0 0.0705,-0.029965 0.0705,-0.066589 z M 169.82611,6.1927801 c -0.0211,-0.054936 -0.0501,-0.099884 -0.0645,-0.099884 -0.0144,0 -0.0262,0.044948 -0.0262,0.099884 0,0.054936 0.029,0.099883 0.0645,0.099883 0.0355,0 0.0473,-0.044948 0.0262,-0.099883 z m -0.10736,-4.7066074 c -0.0105,-0.85401904 -0.0192,-0.1743688 -0.0192,1.5103338 -2e-5,1.6847025 0.009,2.3834452 0.0192,1.5527617 0.0106,-0.8306842 0.0106,-2.2090772 3e-5,-3.0630955 z"
       id="path2775"
       transform="matrix(0.26458333,0,0,0.26458333,-0.42741935,-11.061889)" />
    <path
       style="fill:none;stroke:none;stroke-width:0.133178;stroke-linecap:round;stroke-linejoin:round"
       d="M 143.88276,49.320765 117.79702,42.483803 117.79651,8.2736873 117.796,-25.936428 h 67.05516 67.05515 V 15.11571 56.167849 l -40.9689,-0.0051 -40.9689,-0.0051 z M 195.7884,6.8420251 c -4.62377,-0.00944 -12.18995,-0.00944 -16.81373,0 -4.62377,0.00944 -0.84068,0.017162 8.40687,0.017162 9.24755,0 13.03064,-0.00772 8.40686,-0.017162 z m 8.77311,-0.1498273 c 0,-0.036624 -0.0132,-0.066589 -0.0294,-0.066589 -0.0161,0 -0.0479,0.029965 -0.0705,0.066589 -0.0226,0.036624 -0.009,0.066589 0.0294,0.066589 0.0388,0 0.0705,-0.029965 0.0705,-0.066589 z M 170.06864,6.5259876 c -0.0859,-0.091415 -0.17083,-0.1515294 -0.18877,-0.1335863 -0.0442,0.044206 0.19198,0.2997965 0.27704,0.2997965 0.0373,0 -0.002,-0.074795 -0.0883,-0.1662102 z m 34.69264,0.033032 c 0,-0.036624 -0.0132,-0.066589 -0.0294,-0.066589 -0.0162,0 -0.0479,0.029965 -0.0705,0.066589 -0.0226,0.036624 -0.009,0.066589 0.0294,0.066589 0.0388,0 0.0705,-0.029965 0.0705,-0.066589 z M 169.82611,6.1927801 c -0.0211,-0.054936 -0.0501,-0.099884 -0.0645,-0.099884 -0.0144,0 -0.0262,0.044948 -0.0262,0.099884 0,0.054936 0.029,0.099883 0.0645,0.099883 0.0355,0 0.0473,-0.044948 0.0262,-0.099883 z m -0.10736,-4.7066074 c -0.0105,-0.85401904 -0.0192,-0.1743688 -0.0192,1.5103338 -2e-5,1.6847025 0.009,2.3834452 0.0192,1.5527617 0.0106,-0.8306842 0.0106,-2.2090772 3e-5,-3.0630955 z"
       id="path2888"
       transform="matrix(0.26458333,0,0,0.26458333,-0.42741935,-11.061889)" />
    <rect
       style="opacity:0.995935;fill:none;fill-opacity:1;stroke:none;stroke-width:0.541602;stroke-linecap:square;stroke-linejoin:miter;stroke-miterlimit:4;stroke-dasharray:none;stroke-opacity:0;paint-order:fill markers stroke"
       id="rect18936"
       width="18.520834"
       height="3.96875"
       x="20.311829"
       y="11.778396" />
  </g>
</svg>
